# xmcd
#
# Track frame offsets:
#	150
#	15825
#	23994
#	36672
#	49330
#	61260
#	75480
#	89829
#	110335
#	121220
#	133675
#	147005
#	158827
#	173480
#	184430
#	192097
#
# Disc length: 2792 seconds
#
# Revision: 1
# Processed by: cddbd v1.5.1PL0 Copyright (c) Steve Scherf et al.
# Submitted via: EasyCDDAExtractor 6.5.5.1
#
DISCID=d40ae610
DTITLE=Elvis Presley - La Légende 1969-1970 Country
DYEAR=1900
DGENRE=Country
TTITLE0=I was born about ten thousand years ago
TTITLE1=Little cabin on the hill
TTITLE2=Mama likes the roses
TTITLE3=Don't cry Daddy
TTITLE4=True love travels on a gravel road
TTITLE5=The fair is moving on
TTITLE6=And the grass won't pay no mind
TTITLE7=I'll hold you in my heart
TTITLE8=From a jack to a king
TTITLE9=My little friend
TTITLE10=Inherit the wind
TTITLE11=It keeps right on a-hurtin '
TTITLE12=Kentucky rain
TTITLE13=The fool
TTITLE14=A hundred years from now
TTITLE15=This time - I can't stop loving you
EXTD=
EXTT0=
EXTT1=
EXTT2=
EXTT3=
EXTT4=
EXTT5=
EXTT6=
EXTT7=
EXTT8=
EXTT9=
EXTT10=
EXTT11=
EXTT12=
EXTT13=
EXTT14=
EXTT15=
PLAYORDER=
